<svg width="384" height="191" viewBox="0 0 384 191" fill="none" xmlns="http://www.w3.org/2000/svg">
<circle cx="77" cy="78" r="20" fill="#286FB4"/>
<path opacity="0.9" d="M27.0382 88.8055C33.5409 81.7317 44.5468 81.2688 51.6206 87.7714L88.0333 121.244C95.1071 127.747 95.5701 138.753 89.0674 145.827V145.827C82.5647 152.901 71.5588 153.363 64.4849 146.861L28.0723 113.388C20.9985 106.885 20.5355 95.8793 27.0382 88.8055V88.8055Z" fill="#DF4C73"/>
<path opacity="0.9" d="M121.543 92.0662C128.143 99.0497 127.832 110.061 120.848 116.661L88.7202 147.022C81.7367 153.622 70.7254 153.31 64.1258 146.327V146.327C57.5263 139.343 57.8375 128.332 64.821 121.733L96.949 91.371C103.933 84.7714 114.944 85.0827 121.543 92.0662V92.0662Z" fill="#B0DDE4"/>
<path d="M164.32 109V108.2C165.2 108.147 165.853 108.04 166.28 107.88C166.733 107.72 167.027 107.4 167.16 106.92C167.32 106.44 167.4 105.72 167.4 104.76V84.92C167.4 83.9333 167.32 83.2133 167.16 82.76C167.027 82.28 166.733 81.96 166.28 81.8C165.853 81.6133 165.2 81.5067 164.32 81.48V80.68C165.04 80.7067 165.933 80.7333 167 80.76C168.067 80.7867 169.133 80.8 170.2 80.8C171.373 80.8 172.467 80.7867 173.48 80.76C174.52 80.7333 175.347 80.7067 175.96 80.68V81.48C175.107 81.5067 174.453 81.6133 174 81.8C173.573 81.96 173.28 82.28 173.12 82.76C172.96 83.2133 172.88 83.9333 172.88 84.92V104.76C172.88 105.72 172.96 106.44 173.12 106.92C173.28 107.4 173.573 107.72 174 107.88C174.453 108.04 175.107 108.147 175.96 108.2V109C175.347 108.947 174.52 108.92 173.48 108.92C172.467 108.893 171.373 108.88 170.2 108.88C169.133 108.88 168.067 108.893 167 108.92C165.933 108.92 165.04 108.947 164.32 109ZM147.44 109V108.2C148.32 108.147 148.973 108.04 149.4 107.88C149.853 107.72 150.147 107.4 150.28 106.92C150.44 106.44 150.52 105.72 150.52 104.76V84.92C150.52 83.9333 150.44 83.2133 150.28 82.76C150.147 82.28 149.853 81.96 149.4 81.8C148.973 81.6133 148.32 81.5067 147.44 81.48V80.68C148.107 80.7067 148.96 80.7333 150 80.76C151.04 80.7867 152.16 80.8 153.36 80.8C154.427 80.8 155.48 80.7867 156.52 80.76C157.56 80.7333 158.413 80.7067 159.08 80.68V81.48C158.227 81.5067 157.573 81.6133 157.12 81.8C156.693 81.96 156.4 82.28 156.24 82.76C156.08 83.2133 156 83.9333 156 84.92V104.76C156 105.72 156.08 106.44 156.24 106.92C156.4 107.4 156.693 107.72 157.12 107.88C157.573 108.04 158.227 108.147 159.08 108.2V109C158.413 108.947 157.56 108.92 156.52 108.92C155.48 108.893 154.427 108.88 153.36 108.88C152.16 108.88 151.04 108.893 150 108.92C148.96 108.92 148.107 108.947 147.44 109ZM153.8 95.16V94.36H169.6V95.16H153.8ZM187.903 87.76C189.743 87.76 191.37 88.1333 192.783 88.88C194.223 89.6 195.356 90.76 196.183 92.36C197.036 93.96 197.463 96.0667 197.463 98.68C197.463 101.293 197.036 103.4 196.183 105C195.356 106.6 194.223 107.76 192.783 108.48C191.37 109.2 189.743 109.56 187.903 109.56C186.063 109.56 184.423 109.2 182.983 108.48C181.543 107.76 180.41 106.6 179.583 105C178.756 103.4 178.343 101.293 178.343 98.68C178.343 96.0667 178.756 93.96 179.583 92.36C180.41 90.76 181.543 89.6 182.983 88.88C184.423 88.1333 186.063 87.76 187.903 87.76ZM187.903 88.56C186.65 88.56 185.623 89.36 184.823 90.96C184.05 92.5333 183.663 95.1067 183.663 98.68C183.663 102.253 184.05 104.827 184.823 106.4C185.623 107.973 186.65 108.76 187.903 108.76C189.13 108.76 190.143 107.973 190.943 106.4C191.743 104.827 192.143 102.253 192.143 98.68C192.143 95.1067 191.743 92.5333 190.943 90.96C190.143 89.36 189.13 88.56 187.903 88.56ZM219.407 87.88V104.68C219.407 105.88 219.607 106.773 220.007 107.36C220.407 107.92 221.114 108.2 222.127 108.2V109.04C221.3 108.96 220.474 108.92 219.647 108.92C218.66 108.92 217.714 108.96 216.807 109.04C215.927 109.12 215.114 109.267 214.367 109.48V105.48C213.7 106.947 212.78 108 211.607 108.64C210.46 109.253 209.22 109.56 207.887 109.56C206.847 109.56 205.967 109.413 205.247 109.12C204.554 108.853 203.994 108.48 203.567 108C203.114 107.493 202.794 106.827 202.607 106C202.42 105.173 202.327 104.107 202.327 102.8V92.68C202.327 91.48 202.127 90.6 201.727 90.04C201.354 89.4533 200.647 89.16 199.607 89.16V88.32C200.46 88.4 201.287 88.44 202.087 88.44C203.074 88.44 204.007 88.4 204.887 88.32C205.794 88.2133 206.62 88.0667 207.367 87.88V104.2C207.367 104.92 207.42 105.56 207.527 106.12C207.66 106.68 207.914 107.133 208.287 107.48C208.66 107.8 209.22 107.96 209.967 107.96C210.794 107.96 211.54 107.72 212.207 107.24C212.874 106.76 213.394 106.107 213.767 105.28C214.167 104.453 214.367 103.52 214.367 102.48V92.68C214.367 91.48 214.167 90.6 213.767 90.04C213.394 89.4533 212.687 89.16 211.647 89.16V88.32C212.5 88.4 213.327 88.44 214.127 88.44C215.114 88.44 216.047 88.4 216.927 88.32C217.834 88.2133 218.66 88.0667 219.407 87.88ZM231.594 87.76C232.714 87.76 233.674 87.92 234.474 88.24C235.274 88.56 235.861 88.84 236.234 89.08C237.141 89.7467 237.687 89.32 237.874 87.8H238.754C238.701 88.5733 238.661 89.4933 238.634 90.56C238.607 91.6 238.594 93 238.594 94.76H237.714C237.581 93.7733 237.327 92.8133 236.954 91.88C236.581 90.9467 236.034 90.1733 235.314 89.56C234.594 88.92 233.647 88.6 232.474 88.6C231.647 88.6 230.954 88.84 230.394 89.32C229.861 89.8 229.594 90.48 229.594 91.36C229.594 92.16 229.834 92.8667 230.314 93.48C230.794 94.0667 231.407 94.6267 232.154 95.16C232.927 95.6667 233.727 96.2267 234.554 96.84C235.514 97.48 236.367 98.1333 237.114 98.8C237.861 99.44 238.461 100.16 238.914 100.96C239.367 101.733 239.594 102.653 239.594 103.72C239.594 104.947 239.247 106 238.554 106.88C237.887 107.733 236.994 108.4 235.874 108.88C234.781 109.333 233.567 109.56 232.234 109.56C231.514 109.56 230.861 109.493 230.274 109.36C229.687 109.227 229.167 109.053 228.714 108.84C228.367 108.653 228.047 108.48 227.754 108.32C227.487 108.16 227.207 108.027 226.914 107.92C226.647 107.787 226.407 107.84 226.194 108.08C226.007 108.32 225.861 108.72 225.754 109.28H224.874C224.927 108.427 224.967 107.387 224.994 106.16C225.021 104.933 225.034 103.307 225.034 101.28H225.914C226.101 102.747 226.381 104.04 226.754 105.16C227.154 106.253 227.727 107.12 228.474 107.76C229.221 108.373 230.181 108.68 231.354 108.68C231.861 108.68 232.341 108.573 232.794 108.36C233.274 108.147 233.661 107.813 233.954 107.36C234.274 106.907 234.434 106.293 234.434 105.52C234.434 104.347 234.034 103.373 233.234 102.6C232.434 101.827 231.434 101 230.234 100.12C229.327 99.4533 228.474 98.8 227.674 98.16C226.901 97.52 226.261 96.8 225.754 96C225.274 95.2 225.034 94.2533 225.034 93.16C225.034 91.96 225.341 90.9733 225.954 90.2C226.567 89.4 227.367 88.8 228.354 88.4C229.367 87.9733 230.447 87.76 231.594 87.76ZM252.315 87.76C254.662 87.76 256.502 88.4667 257.835 89.88C259.169 91.2933 259.835 93.5467 259.835 96.64H246.355L246.315 95.88H255.195C255.249 94.5733 255.169 93.3733 254.955 92.28C254.742 91.16 254.395 90.2667 253.915 89.6C253.462 88.9333 252.862 88.6 252.115 88.6C251.102 88.6 250.222 89.2 249.475 90.4C248.729 91.5733 248.262 93.5067 248.075 96.2L248.235 96.44C248.182 96.7867 248.142 97.16 248.115 97.56C248.115 97.96 248.115 98.36 248.115 98.76C248.115 100.6 248.382 102.12 248.915 103.32C249.449 104.52 250.142 105.4 250.995 105.96C251.849 106.52 252.729 106.8 253.635 106.8C254.249 106.8 254.875 106.707 255.515 106.52C256.155 106.333 256.782 105.987 257.395 105.48C258.009 104.973 258.569 104.253 259.075 103.32L259.835 103.64C259.542 104.573 259.049 105.507 258.355 106.44C257.689 107.347 256.822 108.093 255.755 108.68C254.689 109.267 253.435 109.56 251.995 109.56C250.182 109.56 248.582 109.16 247.195 108.36C245.809 107.56 244.729 106.373 243.955 104.8C243.182 103.2 242.795 101.253 242.795 98.96C242.795 96.5333 243.195 94.4933 243.995 92.84C244.822 91.1867 245.955 89.9333 247.395 89.08C248.835 88.2 250.475 87.76 252.315 87.76ZM269.911 77.68V91.84C270.577 90.3467 271.497 89.2933 272.671 88.68C273.871 88.0667 275.164 87.76 276.551 87.76C277.644 87.76 278.537 87.9067 279.231 88.2C279.924 88.4933 280.484 88.8667 280.911 89.32C281.364 89.8267 281.684 90.48 281.871 91.28C282.084 92.08 282.191 93.16 282.191 94.52V105.28C282.191 106.4 282.391 107.16 282.791 107.56C283.217 107.96 283.924 108.16 284.911 108.16V109C284.431 108.973 283.697 108.947 282.711 108.92C281.724 108.867 280.751 108.84 279.791 108.84C278.831 108.84 277.884 108.867 276.951 108.92C276.017 108.947 275.311 108.973 274.831 109V108.16C275.684 108.16 276.284 107.96 276.631 107.56C276.977 107.16 277.151 106.4 277.151 105.28V93.16C277.151 92.44 277.084 91.8 276.951 91.24C276.817 90.6533 276.551 90.2 276.151 89.88C275.777 89.5333 275.204 89.36 274.431 89.36C273.577 89.36 272.804 89.6 272.111 90.08C271.444 90.5333 270.911 91.1867 270.511 92.04C270.111 92.8667 269.911 93.8133 269.911 94.88V105.28C269.911 106.4 270.084 107.16 270.431 107.56C270.804 107.96 271.404 108.16 272.231 108.16V109C271.777 108.973 271.097 108.947 270.191 108.92C269.311 108.867 268.391 108.84 267.431 108.84C266.471 108.84 265.471 108.867 264.431 108.92C263.417 108.947 262.657 108.973 262.151 109V108.16C263.137 108.16 263.831 107.96 264.231 107.56C264.657 107.16 264.871 106.4 264.871 105.28V82.48C264.871 81.28 264.671 80.4 264.271 79.84C263.897 79.2533 263.191 78.96 262.151 78.96V78.12C263.004 78.2 263.831 78.24 264.631 78.24C265.644 78.24 266.591 78.2 267.471 78.12C268.351 78.0133 269.164 77.8667 269.911 77.68ZM296.653 87.76C298.493 87.76 300.12 88.1333 301.533 88.88C302.973 89.6 304.106 90.76 304.933 92.36C305.786 93.96 306.213 96.0667 306.213 98.68C306.213 101.293 305.786 103.4 304.933 105C304.106 106.6 302.973 107.76 301.533 108.48C300.12 109.2 298.493 109.56 296.653 109.56C294.813 109.56 293.173 109.2 291.733 108.48C290.293 107.76 289.16 106.6 288.333 105C287.506 103.4 287.093 101.293 287.093 98.68C287.093 96.0667 287.506 93.96 288.333 92.36C289.16 90.76 290.293 89.6 291.733 88.88C293.173 88.1333 294.813 87.76 296.653 87.76ZM296.653 88.56C295.4 88.56 294.373 89.36 293.573 90.96C292.8 92.5333 292.413 95.1067 292.413 98.68C292.413 102.253 292.8 104.827 293.573 106.4C294.373 107.973 295.4 108.76 296.653 108.76C297.88 108.76 298.893 107.973 299.693 106.4C300.493 104.827 300.893 102.253 300.893 98.68C300.893 95.1067 300.493 92.5333 299.693 90.96C298.893 89.36 297.88 88.56 296.653 88.56ZM315.966 77.68V105.28C315.966 106.4 316.166 107.16 316.566 107.56C316.993 107.96 317.7 108.16 318.686 108.16V109C318.206 108.973 317.473 108.947 316.486 108.92C315.526 108.867 314.54 108.84 313.526 108.84C312.54 108.84 311.526 108.867 310.486 108.92C309.473 108.947 308.713 108.973 308.206 109V108.16C309.193 108.16 309.886 107.96 310.286 107.56C310.713 107.16 310.926 106.4 310.926 105.28V82.48C310.926 81.28 310.74 80.4 310.366 79.84C309.993 79.2533 309.273 78.96 308.206 78.96V78.12C309.06 78.2 309.886 78.24 310.686 78.24C311.7 78.24 312.646 78.2 313.526 78.12C314.406 78.0133 315.22 77.8667 315.966 77.68ZM339.325 77.68V104.64C339.325 105.84 339.525 106.733 339.925 107.32C340.325 107.88 341.032 108.16 342.045 108.16V109C341.218 108.92 340.392 108.88 339.565 108.88C338.578 108.88 337.645 108.92 336.765 109C335.885 109.08 335.058 109.227 334.285 109.44V82.48C334.285 81.28 334.085 80.4 333.685 79.84C333.312 79.2533 332.605 78.96 331.565 78.96V78.12C332.418 78.2 333.245 78.24 334.045 78.24C335.058 78.24 336.005 78.2 336.885 78.12C337.765 78.0133 338.578 77.8667 339.325 77.68ZM329.765 87.76C330.938 87.76 331.992 87.9867 332.925 88.44C333.858 88.8933 334.552 89.6533 335.005 90.72L334.525 91.12C334.152 90.3467 333.645 89.7733 333.005 89.4C332.365 89.0267 331.645 88.84 330.845 88.84C329.405 88.84 328.245 89.6533 327.365 91.28C326.512 92.88 326.085 95.3467 326.085 98.68C326.085 100.92 326.258 102.733 326.605 104.12C326.952 105.48 327.445 106.467 328.085 107.08C328.752 107.693 329.538 108 330.445 108C331.405 108 332.272 107.613 333.045 106.84C333.818 106.04 334.272 104.907 334.405 103.44L334.685 104.56C334.338 106.187 333.685 107.427 332.725 108.28C331.765 109.133 330.498 109.56 328.925 109.56C327.325 109.56 325.898 109.173 324.645 108.4C323.418 107.6 322.458 106.4 321.765 104.8C321.098 103.173 320.765 101.12 320.765 98.64C320.765 96.2133 321.165 94.2 321.965 92.6C322.765 90.9733 323.845 89.76 325.205 88.96C326.565 88.16 328.085 87.76 329.765 87.76Z" fill="black"/>
<path d="M207.44 127V116.504H210.72C211.435 116.504 212.069 116.6 212.624 116.792C213.179 116.973 213.611 117.283 213.92 117.72C214.24 118.147 214.4 118.723 214.4 119.448C214.4 120.152 214.24 120.733 213.92 121.192C213.611 121.651 213.179 121.997 212.624 122.232C212.069 122.456 211.435 122.568 210.72 122.568H208.768V127H207.44ZM208.768 121.48H210.528C211.349 121.48 211.979 121.315 212.416 120.984C212.853 120.643 213.072 120.131 213.072 119.448C213.072 118.765 212.853 118.285 212.416 118.008C211.979 117.72 211.349 117.576 210.528 117.576H208.768V121.48ZM213.2 127L210.464 122.2L211.504 121.496L214.704 127H213.2ZM216.549 127V116.504H222.597V117.624H217.877V120.92H221.861V122.056H217.877V125.864H222.757V127H216.549ZM224.987 127V116.504H227.979C228.768 116.504 229.456 116.605 230.043 116.808C230.63 117 231.088 117.32 231.419 117.768C231.75 118.216 231.915 118.824 231.915 119.592C231.915 120.328 231.75 120.936 231.419 121.416C231.099 121.885 230.646 122.243 230.059 122.488C229.483 122.723 228.811 122.84 228.043 122.84H226.315V127H224.987ZM226.315 121.752H227.883C228.8 121.752 229.478 121.576 229.915 121.224C230.363 120.872 230.587 120.328 230.587 119.592C230.587 118.835 230.352 118.312 229.883 118.024C229.424 117.725 228.736 117.576 227.819 117.576H226.315V121.752ZM237.777 127.192C237.233 127.192 236.732 127.117 236.273 126.968C235.825 126.808 235.431 126.557 235.089 126.216C234.748 125.864 234.481 125.4 234.289 124.824C234.097 124.248 234.001 123.549 234.001 122.728V116.504H235.329V122.76C235.329 123.581 235.436 124.232 235.649 124.712C235.873 125.181 236.167 125.517 236.529 125.72C236.903 125.912 237.319 126.008 237.777 126.008C238.236 126.008 238.652 125.912 239.025 125.72C239.409 125.517 239.713 125.181 239.937 124.712C240.161 124.232 240.273 123.581 240.273 122.76V116.504H241.537V122.728C241.537 123.549 241.441 124.248 241.249 124.824C241.068 125.4 240.807 125.864 240.465 126.216C240.124 126.557 239.724 126.808 239.265 126.968C238.807 127.117 238.311 127.192 237.777 127.192ZM244.362 127V116.504H247.482C248.186 116.504 248.81 116.589 249.354 116.76C249.898 116.931 250.319 117.208 250.618 117.592C250.927 117.965 251.082 118.456 251.082 119.064C251.082 119.608 250.949 120.088 250.682 120.504C250.426 120.909 250.047 121.192 249.546 121.352V121.416C250.207 121.533 250.73 121.8 251.114 122.216C251.498 122.621 251.69 123.176 251.69 123.88C251.69 124.584 251.519 125.165 251.178 125.624C250.847 126.083 250.383 126.429 249.786 126.664C249.189 126.888 248.495 127 247.706 127H244.362ZM245.69 120.968H247.242C248.138 120.968 248.783 120.813 249.178 120.504C249.573 120.195 249.77 119.773 249.77 119.24C249.77 118.621 249.562 118.189 249.146 117.944C248.73 117.688 248.117 117.56 247.306 117.56H245.69V120.968ZM245.69 125.944H247.514C248.421 125.944 249.125 125.779 249.626 125.448C250.127 125.107 250.378 124.584 250.378 123.88C250.378 123.229 250.133 122.755 249.642 122.456C249.151 122.147 248.442 121.992 247.514 121.992H245.69V125.944ZM253.768 127V116.504H255.096V125.864H259.688V127H253.768ZM261.549 127V116.504H262.877V127H261.549ZM269.737 127.192C268.862 127.192 268.073 126.979 267.369 126.552C266.675 126.115 266.131 125.491 265.737 124.68C265.342 123.869 265.145 122.893 265.145 121.752C265.145 120.909 265.257 120.152 265.481 119.48C265.715 118.808 266.046 118.237 266.473 117.768C266.899 117.288 267.39 116.925 267.945 116.68C268.51 116.435 269.129 116.312 269.801 116.312C270.43 116.312 270.99 116.44 271.481 116.696C271.982 116.952 272.382 117.256 272.681 117.608L271.961 118.424C271.683 118.125 271.363 117.896 271.001 117.736C270.649 117.565 270.254 117.48 269.817 117.48C269.166 117.48 268.59 117.656 268.089 118.008C267.598 118.349 267.214 118.84 266.937 119.48C266.659 120.109 266.521 120.856 266.521 121.72C266.521 122.605 266.654 123.368 266.921 124.008C267.187 124.648 267.571 125.144 268.073 125.496C268.574 125.837 269.161 126.008 269.833 126.008C270.323 126.008 270.761 125.917 271.145 125.736C271.539 125.544 271.897 125.267 272.217 124.904L272.921 125.688C272.505 126.168 272.041 126.541 271.529 126.808C271.017 127.064 270.419 127.192 269.737 127.192Z" fill="black"/>
</svg>
