<svg width="384" height="107" viewBox="0 0 384 107" fill="none" xmlns="http://www.w3.org/2000/svg">
<g clip-path="url(#clip0_12_22)">
<rect width="384" height="107" fill="white"/>
<path d="M169.32 63V62.2C170.2 62.1467 170.853 62.04 171.28 61.88C171.733 61.72 172.027 61.4 172.16 60.92C172.32 60.44 172.4 59.72 172.4 58.76V38.92C172.4 37.9333 172.32 37.2133 172.16 36.76C172.027 36.28 171.733 35.96 171.28 35.8C170.853 35.6133 170.2 35.5067 169.32 35.48V34.68C170.04 34.7067 170.933 34.7333 172 34.76C173.067 34.7867 174.133 34.8 175.2 34.8C176.373 34.8 177.467 34.7867 178.48 34.76C179.52 34.7333 180.347 34.7067 180.96 34.68V35.48C180.107 35.5067 179.453 35.6133 179 35.8C178.573 35.96 178.28 36.28 178.12 36.76C177.96 37.2133 177.88 37.9333 177.88 38.92V58.76C177.88 59.72 177.96 60.44 178.12 60.92C178.28 61.4 178.573 61.72 179 61.88C179.453 62.04 180.107 62.1467 180.96 62.2V63C180.347 62.9467 179.52 62.92 178.48 62.92C177.467 62.8933 176.373 62.88 175.2 62.88C174.133 62.88 173.067 62.8933 172 62.92C170.933 62.92 170.04 62.9467 169.32 63ZM152.44 63V62.2C153.32 62.1467 153.973 62.04 154.4 61.88C154.853 61.72 155.147 61.4 155.28 60.92C155.44 60.44 155.52 59.72 155.52 58.76V38.92C155.52 37.9333 155.44 37.2133 155.28 36.76C155.147 36.28 154.853 35.96 154.4 35.8C153.973 35.6133 153.32 35.5067 152.44 35.48V34.68C153.107 34.7067 153.96 34.7333 155 34.76C156.04 34.7867 157.16 34.8 158.36 34.8C159.427 34.8 160.48 34.7867 161.52 34.76C162.56 34.7333 163.413 34.7067 164.08 34.68V35.48C163.227 35.5067 162.573 35.6133 162.12 35.8C161.693 35.96 161.4 36.28 161.24 36.76C161.08 37.2133 161 37.9333 161 38.92V58.76C161 59.72 161.08 60.44 161.24 60.92C161.4 61.4 161.693 61.72 162.12 61.88C162.573 62.04 163.227 62.1467 164.08 62.2V63C163.413 62.9467 162.56 62.92 161.52 62.92C160.48 62.8933 159.427 62.88 158.36 62.88C157.16 62.88 156.04 62.8933 155 62.92C153.96 62.92 153.107 62.9467 152.44 63ZM158.8 49.16V48.36H174.6V49.16H158.8ZM192.903 41.76C194.743 41.76 196.37 42.1333 197.783 42.88C199.223 43.6 200.356 44.76 201.183 46.36C202.036 47.96 202.463 50.0667 202.463 52.68C202.463 55.2933 202.036 57.4 201.183 59C200.356 60.6 199.223 61.76 197.783 62.48C196.37 63.2 194.743 63.56 192.903 63.56C191.063 63.56 189.423 63.2 187.983 62.48C186.543 61.76 185.41 60.6 184.583 59C183.756 57.4 183.343 55.2933 183.343 52.68C183.343 50.0667 183.756 47.96 184.583 46.36C185.41 44.76 186.543 43.6 187.983 42.88C189.423 42.1333 191.063 41.76 192.903 41.76ZM192.903 42.56C191.65 42.56 190.623 43.36 189.823 44.96C189.05 46.5333 188.663 49.1067 188.663 52.68C188.663 56.2533 189.05 58.8267 189.823 60.4C190.623 61.9733 191.65 62.76 192.903 62.76C194.13 62.76 195.143 61.9733 195.943 60.4C196.743 58.8267 197.143 56.2533 197.143 52.68C197.143 49.1067 196.743 46.5333 195.943 44.96C195.143 43.36 194.13 42.56 192.903 42.56ZM224.407 41.88V58.68C224.407 59.88 224.607 60.7733 225.007 61.36C225.407 61.92 226.114 62.2 227.127 62.2V63.04C226.3 62.96 225.474 62.92 224.647 62.92C223.66 62.92 222.714 62.96 221.807 63.04C220.927 63.12 220.114 63.2667 219.367 63.48V59.48C218.7 60.9467 217.78 62 216.607 62.64C215.46 63.2533 214.22 63.56 212.887 63.56C211.847 63.56 210.967 63.4133 210.247 63.12C209.554 62.8533 208.994 62.48 208.567 62C208.114 61.4933 207.794 60.8267 207.607 60C207.42 59.1733 207.327 58.1067 207.327 56.8V46.68C207.327 45.48 207.127 44.6 206.727 44.04C206.354 43.4533 205.647 43.16 204.607 43.16V42.32C205.46 42.4 206.287 42.44 207.087 42.44C208.074 42.44 209.007 42.4 209.887 42.32C210.794 42.2133 211.62 42.0667 212.367 41.88V58.2C212.367 58.92 212.42 59.56 212.527 60.12C212.66 60.68 212.914 61.1333 213.287 61.48C213.66 61.8 214.22 61.96 214.967 61.96C215.794 61.96 216.54 61.72 217.207 61.24C217.874 60.76 218.394 60.1067 218.767 59.28C219.167 58.4533 219.367 57.52 219.367 56.48V46.68C219.367 45.48 219.167 44.6 218.767 44.04C218.394 43.4533 217.687 43.16 216.647 43.16V42.32C217.5 42.4 218.327 42.44 219.127 42.44C220.114 42.44 221.047 42.4 221.927 42.32C222.834 42.2133 223.66 42.0667 224.407 41.88ZM236.594 41.76C237.714 41.76 238.674 41.92 239.474 42.24C240.274 42.56 240.861 42.84 241.234 43.08C242.141 43.7467 242.687 43.32 242.874 41.8H243.754C243.701 42.5733 243.661 43.4933 243.634 44.56C243.607 45.6 243.594 47 243.594 48.76H242.714C242.581 47.7733 242.327 46.8133 241.954 45.88C241.581 44.9467 241.034 44.1733 240.314 43.56C239.594 42.92 238.647 42.6 237.474 42.6C236.647 42.6 235.954 42.84 235.394 43.32C234.861 43.8 234.594 44.48 234.594 45.36C234.594 46.16 234.834 46.8667 235.314 47.48C235.794 48.0667 236.407 48.6267 237.154 49.16C237.927 49.6667 238.727 50.2267 239.554 50.84C240.514 51.48 241.367 52.1333 242.114 52.8C242.861 53.44 243.461 54.16 243.914 54.96C244.367 55.7333 244.594 56.6533 244.594 57.72C244.594 58.9467 244.247 60 243.554 60.88C242.887 61.7333 241.994 62.4 240.874 62.88C239.781 63.3333 238.567 63.56 237.234 63.56C236.514 63.56 235.861 63.4933 235.274 63.36C234.687 63.2267 234.167 63.0533 233.714 62.84C233.367 62.6533 233.047 62.48 232.754 62.32C232.487 62.16 232.207 62.0267 231.914 61.92C231.647 61.7867 231.407 61.84 231.194 62.08C231.007 62.32 230.861 62.72 230.754 63.28H229.874C229.927 62.4267 229.967 61.3867 229.994 60.16C230.021 58.9333 230.034 57.3067 230.034 55.28H230.914C231.101 56.7467 231.381 58.04 231.754 59.16C232.154 60.2533 232.727 61.12 233.474 61.76C234.221 62.3733 235.181 62.68 236.354 62.68C236.861 62.68 237.341 62.5733 237.794 62.36C238.274 62.1467 238.661 61.8133 238.954 61.36C239.274 60.9067 239.434 60.2933 239.434 59.52C239.434 58.3467 239.034 57.3733 238.234 56.6C237.434 55.8267 236.434 55 235.234 54.12C234.327 53.4533 233.474 52.8 232.674 52.16C231.901 51.52 231.261 50.8 230.754 50C230.274 49.2 230.034 48.2533 230.034 47.16C230.034 45.96 230.341 44.9733 230.954 44.2C231.567 43.4 232.367 42.8 233.354 42.4C234.367 41.9733 235.447 41.76 236.594 41.76ZM257.315 41.76C259.662 41.76 261.502 42.4667 262.835 43.88C264.169 45.2933 264.835 47.5467 264.835 50.64H251.355L251.315 49.88H260.195C260.249 48.5733 260.169 47.3733 259.955 46.28C259.742 45.16 259.395 44.2667 258.915 43.6C258.462 42.9333 257.862 42.6 257.115 42.6C256.102 42.6 255.222 43.2 254.475 44.4C253.729 45.5733 253.262 47.5067 253.075 50.2L253.235 50.44C253.182 50.7867 253.142 51.16 253.115 51.56C253.115 51.96 253.115 52.36 253.115 52.76C253.115 54.6 253.382 56.12 253.915 57.32C254.449 58.52 255.142 59.4 255.995 59.96C256.849 60.52 257.729 60.8 258.635 60.8C259.249 60.8 259.875 60.7067 260.515 60.52C261.155 60.3333 261.782 59.9867 262.395 59.48C263.009 58.9733 263.569 58.2533 264.075 57.32L264.835 57.64C264.542 58.5733 264.049 59.5067 263.355 60.44C262.689 61.3467 261.822 62.0933 260.755 62.68C259.689 63.2667 258.435 63.56 256.995 63.56C255.182 63.56 253.582 63.16 252.195 62.36C250.809 61.56 249.729 60.3733 248.955 58.8C248.182 57.2 247.795 55.2533 247.795 52.96C247.795 50.5333 248.195 48.4933 248.995 46.84C249.822 45.1867 250.955 43.9333 252.395 43.08C253.835 42.2 255.475 41.76 257.315 41.76ZM274.911 31.68V45.84C275.577 44.3467 276.497 43.2933 277.671 42.68C278.871 42.0667 280.164 41.76 281.551 41.76C282.644 41.76 283.537 41.9067 284.231 42.2C284.924 42.4933 285.484 42.8667 285.911 43.32C286.364 43.8267 286.684 44.48 286.871 45.28C287.084 46.08 287.191 47.16 287.191 48.52V59.28C287.191 60.4 287.391 61.16 287.791 61.56C288.217 61.96 288.924 62.16 289.911 62.16V63C289.431 62.9733 288.697 62.9467 287.711 62.92C286.724 62.8667 285.751 62.84 284.791 62.84C283.831 62.84 282.884 62.8667 281.951 62.92C281.017 62.9467 280.311 62.9733 279.831 63V62.16C280.684 62.16 281.284 61.96 281.631 61.56C281.977 61.16 282.151 60.4 282.151 59.28V47.16C282.151 46.44 282.084 45.8 281.951 45.24C281.817 44.6533 281.551 44.2 281.151 43.88C280.777 43.5333 280.204 43.36 279.431 43.36C278.577 43.36 277.804 43.6 277.111 44.08C276.444 44.5333 275.911 45.1867 275.511 46.04C275.111 46.8667 274.911 47.8133 274.911 48.88V59.28C274.911 60.4 275.084 61.16 275.431 61.56C275.804 61.96 276.404 62.16 277.231 62.16V63C276.777 62.9733 276.097 62.9467 275.191 62.92C274.311 62.8667 273.391 62.84 272.431 62.84C271.471 62.84 270.471 62.8667 269.431 62.92C268.417 62.9467 267.657 62.9733 267.151 63V62.16C268.137 62.16 268.831 61.96 269.231 61.56C269.657 61.16 269.871 60.4 269.871 59.28V36.48C269.871 35.28 269.671 34.4 269.271 33.84C268.897 33.2533 268.191 32.96 267.151 32.96V32.12C268.004 32.2 268.831 32.24 269.631 32.24C270.644 32.24 271.591 32.2 272.471 32.12C273.351 32.0133 274.164 31.8667 274.911 31.68ZM301.653 41.76C303.493 41.76 305.12 42.1333 306.533 42.88C307.973 43.6 309.106 44.76 309.933 46.36C310.786 47.96 311.213 50.0667 311.213 52.68C311.213 55.2933 310.786 57.4 309.933 59C309.106 60.6 307.973 61.76 306.533 62.48C305.12 63.2 303.493 63.56 301.653 63.56C299.813 63.56 298.173 63.2 296.733 62.48C295.293 61.76 294.16 60.6 293.333 59C292.506 57.4 292.093 55.2933 292.093 52.68C292.093 50.0667 292.506 47.96 293.333 46.36C294.16 44.76 295.293 43.6 296.733 42.88C298.173 42.1333 299.813 41.76 301.653 41.76ZM301.653 42.56C300.4 42.56 299.373 43.36 298.573 44.96C297.8 46.5333 297.413 49.1067 297.413 52.68C297.413 56.2533 297.8 58.8267 298.573 60.4C299.373 61.9733 300.4 62.76 301.653 62.76C302.88 62.76 303.893 61.9733 304.693 60.4C305.493 58.8267 305.893 56.2533 305.893 52.68C305.893 49.1067 305.493 46.5333 304.693 44.96C303.893 43.36 302.88 42.56 301.653 42.56ZM320.966 31.68V59.28C320.966 60.4 321.166 61.16 321.566 61.56C321.993 61.96 322.7 62.16 323.686 62.16V63C323.206 62.9733 322.473 62.9467 321.486 62.92C320.526 62.8667 319.54 62.84 318.526 62.84C317.54 62.84 316.526 62.8667 315.486 62.92C314.473 62.9467 313.713 62.9733 313.206 63V62.16C314.193 62.16 314.886 61.96 315.286 61.56C315.713 61.16 315.926 60.4 315.926 59.28V36.48C315.926 35.28 315.74 34.4 315.366 33.84C314.993 33.2533 314.273 32.96 313.206 32.96V32.12C314.06 32.2 314.886 32.24 315.686 32.24C316.7 32.24 317.646 32.2 318.526 32.12C319.406 32.0133 320.22 31.8667 320.966 31.68ZM344.325 31.68V58.64C344.325 59.84 344.525 60.7333 344.925 61.32C345.325 61.88 346.032 62.16 347.045 62.16V63C346.218 62.92 345.392 62.88 344.565 62.88C343.578 62.88 342.645 62.92 341.765 63C340.885 63.08 340.058 63.2267 339.285 63.44V36.48C339.285 35.28 339.085 34.4 338.685 33.84C338.312 33.2533 337.605 32.96 336.565 32.96V32.12C337.418 32.2 338.245 32.24 339.045 32.24C340.058 32.24 341.005 32.2 341.885 32.12C342.765 32.0133 343.578 31.8667 344.325 31.68ZM334.765 41.76C335.938 41.76 336.992 41.9867 337.925 42.44C338.858 42.8933 339.552 43.6533 340.005 44.72L339.525 45.12C339.152 44.3467 338.645 43.7733 338.005 43.4C337.365 43.0267 336.645 42.84 335.845 42.84C334.405 42.84 333.245 43.6533 332.365 45.28C331.512 46.88 331.085 49.3467 331.085 52.68C331.085 54.92 331.258 56.7333 331.605 58.12C331.952 59.48 332.445 60.4667 333.085 61.08C333.752 61.6933 334.538 62 335.445 62C336.405 62 337.272 61.6133 338.045 60.84C338.818 60.04 339.272 58.9067 339.405 57.44L339.685 58.56C339.338 60.1867 338.685 61.4267 337.725 62.28C336.765 63.1333 335.498 63.56 333.925 63.56C332.325 63.56 330.898 63.1733 329.645 62.4C328.418 61.6 327.458 60.4 326.765 58.8C326.098 57.1733 325.765 55.12 325.765 52.64C325.765 50.2133 326.165 48.2 326.965 46.6C327.765 44.9733 328.845 43.76 330.205 42.96C331.565 42.16 333.085 41.76 334.765 41.76Z" fill="black"/>
<path d="M212.44 81V70.504H215.72C216.435 70.504 217.069 70.6 217.624 70.792C218.179 70.9733 218.611 71.2827 218.92 71.72C219.24 72.1467 219.4 72.7227 219.4 73.448C219.4 74.152 219.24 74.7333 218.92 75.192C218.611 75.6507 218.179 75.9973 217.624 76.232C217.069 76.456 216.435 76.568 215.72 76.568H213.768V81H212.44ZM213.768 75.48H215.528C216.349 75.48 216.979 75.3147 217.416 74.984C217.853 74.6427 218.072 74.1307 218.072 73.448C218.072 72.7653 217.853 72.2853 217.416 72.008C216.979 71.72 216.349 71.576 215.528 71.576H213.768V75.48ZM218.2 81L215.464 76.2L216.504 75.496L219.704 81H218.2ZM221.549 81V70.504H227.597V71.624H222.877V74.92H226.861V76.056H222.877V79.864H227.757V81H221.549ZM229.987 81V70.504H232.979C233.768 70.504 234.456 70.6053 235.043 70.808C235.63 71 236.088 71.32 236.419 71.768C236.75 72.216 236.915 72.824 236.915 73.592C236.915 74.328 236.75 74.936 236.419 75.416C236.099 75.8853 235.646 76.2427 235.059 76.488C234.483 76.7227 233.811 76.84 233.043 76.84H231.315V81H229.987ZM231.315 75.752H232.883C233.8 75.752 234.478 75.576 234.915 75.224C235.363 74.872 235.587 74.328 235.587 73.592C235.587 72.8347 235.352 72.312 234.883 72.024C234.424 71.7253 233.736 71.576 232.819 71.576H231.315V75.752ZM242.777 81.192C242.233 81.192 241.732 81.1173 241.273 80.968C240.825 80.808 240.431 80.5573 240.089 80.216C239.748 79.864 239.481 79.4 239.289 78.824C239.097 78.248 239.001 77.5493 239.001 76.728V70.504H240.329V76.76C240.329 77.5813 240.436 78.232 240.649 78.712C240.873 79.1813 241.167 79.5173 241.529 79.72C241.903 79.912 242.319 80.008 242.777 80.008C243.236 80.008 243.652 79.912 244.025 79.72C244.409 79.5173 244.713 79.1813 244.937 78.712C245.161 78.232 245.273 77.5813 245.273 76.76V70.504H246.537V76.728C246.537 77.5493 246.441 78.248 246.249 78.824C246.068 79.4 245.807 79.864 245.465 80.216C245.124 80.5573 244.724 80.808 244.265 80.968C243.807 81.1173 243.311 81.192 242.777 81.192ZM249.362 81V70.504H252.482C253.186 70.504 253.81 70.5893 254.354 70.76C254.898 70.9307 255.319 71.208 255.618 71.592C255.927 71.9653 256.082 72.456 256.082 73.064C256.082 73.608 255.949 74.088 255.682 74.504C255.426 74.9093 255.047 75.192 254.546 75.352V75.416C255.207 75.5333 255.73 75.8 256.114 76.216C256.498 76.6213 256.69 77.176 256.69 77.88C256.69 78.584 256.519 79.1653 256.178 79.624C255.847 80.0827 255.383 80.4293 254.786 80.664C254.189 80.888 253.495 81 252.706 81H249.362ZM250.69 74.968H252.242C253.138 74.968 253.783 74.8133 254.178 74.504C254.573 74.1947 254.77 73.7733 254.77 73.24C254.77 72.6213 254.562 72.1893 254.146 71.944C253.73 71.688 253.117 71.56 252.306 71.56H250.69V74.968ZM250.69 79.944H252.514C253.421 79.944 254.125 79.7787 254.626 79.448C255.127 79.1067 255.378 78.584 255.378 77.88C255.378 77.2293 255.133 76.7547 254.642 76.456C254.151 76.1467 253.442 75.992 252.514 75.992H250.69V79.944ZM258.768 81V70.504H260.096V79.864H264.688V81H258.768ZM266.549 81V70.504H267.877V81H266.549ZM274.737 81.192C273.862 81.192 273.073 80.9787 272.369 80.552C271.675 80.1147 271.131 79.4907 270.737 78.68C270.342 77.8693 270.145 76.8933 270.145 75.752C270.145 74.9093 270.257 74.152 270.481 73.48C270.715 72.808 271.046 72.2373 271.473 71.768C271.899 71.288 272.39 70.9253 272.945 70.68C273.51 70.4347 274.129 70.312 274.801 70.312C275.43 70.312 275.99 70.44 276.481 70.696C276.982 70.952 277.382 71.256 277.681 71.608L276.961 72.424C276.683 72.1253 276.363 71.896 276.001 71.736C275.649 71.5653 275.254 71.48 274.817 71.48C274.166 71.48 273.59 71.656 273.089 72.008C272.598 72.3493 272.214 72.84 271.937 73.48C271.659 74.1093 271.521 74.856 271.521 75.72C271.521 76.6053 271.654 77.368 271.921 78.008C272.187 78.648 272.571 79.144 273.073 79.496C273.574 79.8373 274.161 80.008 274.833 80.008C275.323 80.008 275.761 79.9173 276.145 79.736C276.539 79.544 276.897 79.2667 277.217 78.904L277.921 79.688C277.505 80.168 277.041 80.5413 276.529 80.808C276.017 81.064 275.419 81.192 274.737 81.192Z" fill="black"/>
<g clip-path="url(#clip1_12_22)">
<path d="M70.0377 129.15C46.6918 129.15 23.4207 129.15 0.149658 129.15C0.149658 78.8163 0.149658 28.483 0.149658 -21.8503C50.483 -21.8503 100.816 -21.8503 151.15 -21.8503C151.15 28.483 151.15 78.8163 151.15 129.15C124.137 129.15 97.1249 129.15 70.0377 129.15ZM61.2005 21.7489C61.0509 21.6279 60.879 21.3823 60.755 21.4045C58.5511 21.7993 56.3529 22.226 54.1537 22.6473C51.3442 23.1855 48.5397 23.7522 45.7221 24.2437C45.0802 24.3556 44.9275 24.5974 44.9281 25.2006C44.9427 41.2839 44.941 57.3672 44.9427 73.4506C44.9429 75.1437 44.9451 75.1449 43.3529 75.5839C43.1382 75.6431 42.9181 75.683 42.7004 75.7309C40.7071 76.1698 38.7139 76.609 36.7205 77.0469C36.3712 77.1236 36.1657 77.2462 36.2003 77.6953C36.2594 78.4636 36.2191 79.2397 36.219 80.0125C36.2188 85.0744 36.2242 90.1363 36.2127 95.1982C36.2102 96.2685 36.2222 96.2865 37.2553 96.0488C39.848 95.4521 42.4432 94.8656 45.0407 94.2902C50.1638 93.1554 55.2878 92.0245 60.4155 90.9104C61.0317 90.7766 61.2252 90.5023 61.2231 89.8551C61.1977 82.0005 61.2079 74.1458 61.2062 66.2912C61.2061 65.7438 61.1853 65.1965 61.1998 64.5752C61.2017 64.5491 61.2036 64.5231 61.3289 64.4754C64.4372 63.8931 67.5476 63.3218 70.6532 62.7256C74.6149 61.9649 78.5691 61.1645 82.5359 60.4319C83.1686 60.3151 83.3489 60.0987 83.3461 59.4792C83.3242 54.5908 83.3337 49.7022 83.3335 44.8137C83.3335 44.4732 83.3335 44.1327 83.3335 43.7291C83.0258 43.7446 82.8307 43.7325 82.6445 43.7674C81.4971 43.9823 80.3514 44.2067 79.2056 44.4301C75.2972 45.1924 71.3893 45.9567 67.4807 46.7178C65.7445 47.0559 64.0008 47.3589 62.2729 47.7346C61.2731 47.952 61.2068 47.9451 61.2067 46.9052C61.206 39.1734 61.2069 31.4415 61.2047 23.7097C61.2046 23.1872 61.1834 22.6647 61.1969 22.0476C61.1878 21.9835 61.1786 21.9195 61.2005 21.7489ZM109.818 12.0114C108.01 12.371 106.204 12.737 104.395 13.0889C100.096 13.9248 95.799 14.77 91.4951 15.5776C89.9067 15.8756 89.8987 15.8322 89.8987 17.4203C89.8987 39.3156 89.8986 61.2109 89.8985 83.1062C89.8985 83.3443 89.8985 83.5823 89.8985 83.9153C90.8706 83.6977 91.7188 83.5148 92.5638 83.3176C96.7093 82.3503 100.852 81.3726 105 80.4139C106.08 80.1643 106.086 80.1897 106.086 79.1002C106.086 63.2647 106.086 47.4293 106.086 31.5938C106.086 30.9705 106.061 30.3439 106.121 29.726C106.14 29.5326 106.376 29.2418 106.558 29.2019C107.894 28.9087 109.243 28.6691 110.587 28.4101C112.074 28.1236 113.561 27.8344 115.052 27.5455C115.052 22.0265 115.052 16.5772 115.052 11.0342C113.306 11.3629 111.626 11.6792 109.818 12.0114Z" fill="white"/>
<path d="M61.2056 64.497C61.2037 64.5231 61.2018 64.5491 61.1429 64.6409C60.6245 65.4068 60.7369 66.1676 60.7408 66.9591C60.7783 74.5903 60.7635 82.2218 60.7615 89.8532C60.7615 90.0474 60.7367 90.2417 60.7247 90.4166C60.3161 90.5659 59.9603 90.7453 59.5833 90.8253C57.7389 91.2169 55.8849 91.5632 54.0423 91.9627C52.6953 92.2547 51.3652 92.6243 50.0193 92.9219C48.9053 93.1683 47.6855 93.1592 46.6826 93.6275C45.4678 94.1947 44.0604 93.5505 42.9704 94.4349C41.312 94.2658 39.9004 95.1135 38.4048 95.5816C36.9224 96.0457 36.5143 95.8169 36.5143 94.2721C36.5143 90.2818 36.5143 86.2915 36.5144 82.3013C36.5144 81.0294 36.5019 79.7573 36.5211 78.4857C36.5291 77.9588 36.5803 77.429 37.2645 77.2895C37.7466 77.1912 38.2163 77.0332 38.6977 76.9306C40.6745 76.5092 42.6529 76.0946 44.633 75.6888C44.9494 75.6239 45.2776 75.6168 45.5016 75.5934C45.4074 74.8148 45.21 73.9377 45.2089 73.0602C45.1901 57.6728 45.1945 42.2853 45.1992 26.8978C45.1993 26.432 45.3474 25.9494 45.2652 25.5045C45.1515 24.8899 45.4782 24.602 45.9319 24.5631C46.7995 24.4888 47.6148 24.0153 48.5181 24.2327C48.628 24.2591 48.7642 24.2115 48.8799 24.1731C49.5421 23.9534 50.1874 23.6568 50.8654 23.5166C52.09 23.2635 53.3403 23.1359 54.567 22.8914C55.4358 22.7183 56.2824 22.4439 57.1767 22.7276C57.2373 22.7468 57.3308 22.6622 57.4249 22.6185C57.3126 22.4982 57.2369 22.4172 57.1036 22.2746C57.9568 22.2347 58.7392 22.1981 59.4271 22.166C59.6173 22.0371 59.7518 21.8722 59.8989 21.8601C60.3197 21.8253 60.7456 21.8525 61.1695 21.8554C61.1787 21.9195 61.1878 21.9835 61.1292 22.0959C60.7376 22.1997 60.4137 22.2551 60.0726 22.3135C60.6183 22.8458 60.7749 23.4695 60.7734 24.2007C60.757 31.8319 60.7628 39.4632 60.7637 47.0945C60.7639 48.0554 61.1151 48.3006 61.9863 48.1826C62.5033 48.1126 63.0373 48.2355 63.4199 47.7519C63.4408 47.7256 63.5165 47.7468 63.5651 47.7376C64.6244 47.5377 65.6825 47.3319 66.7426 47.1369C68.3858 46.8347 70.0299 46.5374 71.6745 46.2428C72.415 46.1101 73.1751 45.5973 73.881 46.362C73.9363 46.422 74.1673 46.3198 74.33 46.2907C74.1339 46.0831 73.9867 45.9274 73.7518 45.6787C74.3787 45.6787 74.8484 45.7506 75.2862 45.6629C76.0626 45.5074 76.8109 45.2137 77.5866 45.053C78.7072 44.8209 79.8417 44.656 80.9703 44.4621C81.5502 44.3625 82.1295 44.2586 82.7107 44.1671C82.7704 44.1577 82.8416 44.2204 82.9216 44.256C82.6707 44.4454 82.5068 44.5692 82.2974 44.7273C82.5499 44.8599 82.7288 44.9538 82.7995 44.9909C82.6726 45.4541 82.4804 45.8331 82.4783 46.2131C82.4566 50.3279 82.4619 54.4429 82.4714 58.5578C82.472 58.8199 82.5119 59.1116 82.6313 59.3378C82.9181 59.8811 82.6542 60.0804 82.1787 60.1529C81.6406 60.2349 81.087 60.2349 80.5578 60.3509C79.3798 60.609 78.2208 60.956 77.0398 61.1971C74.5251 61.7104 72.0029 62.1873 69.4797 62.6567C69.1483 62.7184 68.6361 62.7912 68.4745 62.6146C67.7286 61.7998 67.1786 62.6445 66.5427 62.797C66.8578 62.8293 67.1729 62.8616 67.488 62.8939C67.4858 62.9817 67.4836 63.0694 67.4814 63.1572C66.5499 63.1572 65.6183 63.1504 64.6869 63.1619C64.4457 63.1648 64.0737 63.1401 63.9871 63.2739C63.6074 63.8607 63.0512 63.7762 62.515 63.7502C61.9041 63.7206 61.4759 63.9566 61.2056 64.497Z" fill="#FB8C00"/>
<path d="M109.882 12.0034C111.626 11.6792 113.306 11.3629 115.052 11.0341C115.052 16.5772 115.052 22.0265 115.052 27.5455C113.561 27.8344 112.074 28.1236 110.587 28.4101C109.243 28.6691 107.894 28.9087 106.558 29.2019C106.376 29.2418 106.14 29.5326 106.121 29.726C106.061 30.3438 106.086 30.9705 106.086 31.5938C106.086 47.4293 106.086 63.2647 106.086 79.1002C106.086 80.1897 106.08 80.1643 105 80.4139C100.852 81.3726 96.7092 82.3503 92.5637 83.3176C91.7188 83.5148 90.8705 83.6977 89.8984 83.9153C89.8984 83.5823 89.8984 83.3443 89.8984 83.1062C89.8985 61.2109 89.8986 39.3156 89.8987 17.4203C89.8987 15.8322 89.9067 15.8756 91.4951 15.5775C95.799 14.77 100.096 13.9248 104.395 13.0888C106.204 12.737 108.01 12.371 109.882 12.0034Z" fill="#FA8C02"/>
<path d="M61.185 21.8022C60.7456 21.8526 60.3197 21.8253 59.8989 21.8601C59.7518 21.8722 59.6172 22.0371 59.4271 22.166C58.7392 22.1982 57.9567 22.2347 57.1036 22.2746C57.2368 22.4172 57.3125 22.4983 57.4249 22.6185C57.3308 22.6622 57.2373 22.7468 57.1767 22.7276C56.2824 22.4439 55.4357 22.7183 54.567 22.8914C53.3403 23.1359 52.09 23.2635 50.8653 23.5166C50.1874 23.6568 49.542 23.9534 48.8799 24.1731C48.7642 24.2115 48.628 24.2591 48.518 24.2327C47.6147 24.0154 46.7995 24.4888 45.9318 24.5631C45.4782 24.602 45.1515 24.8899 45.2651 25.5045C45.3474 25.9494 45.1993 26.432 45.1991 26.8978C45.1945 42.2853 45.19 57.6728 45.2088 73.0602C45.2099 73.9377 45.4074 74.8148 45.5015 75.5934C45.2776 75.6168 44.9493 75.6239 44.633 75.6888C42.6528 76.0946 40.6745 76.5093 38.6976 76.9306C38.2163 77.0333 37.7465 77.1912 37.2645 77.2895C36.5803 77.4291 36.5291 77.9589 36.5211 78.4857C36.5018 79.7573 36.5143 81.0294 36.5143 82.3013C36.5142 86.2915 36.5143 90.2818 36.5143 94.2721C36.5143 95.8169 36.9223 96.0457 38.4048 95.5816C39.9004 95.1135 41.312 94.2658 42.9703 94.435C44.0604 93.5505 45.4677 94.1947 46.6825 93.6275C47.6854 93.1592 48.9052 93.1683 50.0192 92.9219C51.3651 92.6243 52.6952 92.2547 54.0422 91.9627C55.8848 91.5632 57.7389 91.2169 59.5833 90.8253C59.9602 90.7453 60.3161 90.5659 60.7247 90.4166C60.7366 90.2417 60.7615 90.0475 60.7615 89.8532C60.7635 82.2218 60.7782 74.5903 60.7408 66.9591C60.7369 66.1676 60.6244 65.4068 61.13 64.678C61.1853 65.1965 61.2061 65.7439 61.2063 66.2912C61.2079 74.1458 61.1977 82.0005 61.2231 89.8551C61.2252 90.5023 61.0317 90.7766 60.4155 90.9104C55.2878 92.0245 50.1638 93.1554 45.0407 94.2902C42.4432 94.8656 39.8481 95.4521 37.2553 96.0488C36.2222 96.2866 36.2103 96.2685 36.2127 95.1982C36.2242 90.1363 36.2188 85.0744 36.219 80.0125C36.2191 79.2397 36.2595 78.4636 36.2003 77.6953C36.1657 77.2462 36.3712 77.1236 36.7205 77.0469C38.714 76.609 40.7071 76.1698 42.7004 75.7309C42.9182 75.683 43.1382 75.6431 43.353 75.5839C44.9451 75.1449 44.9429 75.1437 44.9427 73.4506C44.941 57.3672 44.9427 41.2839 44.9281 25.2006C44.9275 24.5974 45.0802 24.3556 45.7221 24.2437C48.5397 23.7522 51.3442 23.1855 54.1537 22.6473C56.3529 22.226 58.5511 21.7993 60.755 21.4045C60.879 21.3823 61.0509 21.6279 61.185 21.8022Z" fill="#ED9728"/>
<path d="M61.2671 64.4862C61.4758 63.9566 61.904 63.7205 62.5149 63.7502C63.051 63.7762 63.6073 63.8607 63.987 63.2739C64.0735 63.1401 64.4456 63.1648 64.6868 63.1619C65.6182 63.1504 66.5498 63.1572 67.4813 63.1572C67.4835 63.0694 67.4857 62.9817 67.4878 62.8939C67.1728 62.8616 66.8577 62.8293 66.5426 62.797C67.1785 62.6445 67.7285 61.7997 68.4743 62.6146C68.636 62.7912 69.1481 62.7183 69.4796 62.6567C72.0028 62.1873 74.525 61.7104 77.0396 61.1971C78.2207 60.956 79.3797 60.609 80.5577 60.3509C81.0869 60.2349 81.6405 60.2349 82.1786 60.1529C82.6541 60.0804 82.918 59.8811 82.6312 59.3378C82.5117 59.1116 82.4719 58.8199 82.4713 58.5578C82.4618 54.4429 82.4565 50.3279 82.4782 46.2131C82.4802 45.8331 82.6725 45.4541 82.7994 44.9909C82.7286 44.9538 82.5498 44.8599 82.2972 44.7273C82.5066 44.5692 82.6706 44.4454 82.9214 44.2559C82.8415 44.2204 82.7703 44.1577 82.7105 44.1671C82.1293 44.2585 81.5501 44.3624 80.9701 44.4621C79.8416 44.656 78.7071 44.8209 77.5865 45.053C76.8108 45.2136 76.0625 45.5074 75.2861 45.6629C74.8483 45.7506 74.3786 45.6787 73.7517 45.6787C73.9866 45.9273 74.1338 46.0831 74.3299 46.2907C74.1672 46.3198 73.9362 46.4219 73.8809 46.362C73.175 45.5972 72.4149 46.1101 71.6744 46.2428C70.0298 46.5374 68.3857 46.8347 66.7425 47.1369C65.6824 47.3319 64.6242 47.5377 63.565 47.7376C63.5164 47.7468 63.4407 47.7255 63.4198 47.7519C63.0372 48.2355 62.5032 48.1126 61.9862 48.1826C61.115 48.3006 60.7637 48.0554 60.7636 47.0945C60.7627 39.4632 60.7568 31.8319 60.7732 24.2006C60.7748 23.4695 60.6182 22.8458 60.0725 22.3135C60.4135 22.2551 60.7374 22.1997 61.1166 22.1432C61.1834 22.6647 61.2045 23.1872 61.2047 23.7097C61.2069 31.4415 61.2059 39.1734 61.2066 46.9052C61.2067 47.9451 61.2731 47.952 62.2729 47.7346C64.0008 47.3589 65.7445 47.0559 67.4806 46.7178C71.3892 45.9567 75.2971 45.1923 79.2055 44.4301C80.3513 44.2066 81.497 43.9823 82.6444 43.7674C82.8307 43.7325 83.0257 43.7446 83.3334 43.7291C83.3334 44.1327 83.3334 44.4732 83.3334 44.8137C83.3336 49.7022 83.3241 54.5908 83.346 59.4792C83.3488 60.0986 83.1685 60.3151 82.5358 60.4319C78.569 61.1645 74.6149 61.9649 70.6532 62.7255C67.5475 63.3218 64.4371 63.8931 61.2671 64.4862Z" fill="#ED9728"/>
</g>
</g>
<defs>
<clipPath id="clip0_12_22">
<rect width="384" height="107" fill="white"/>
</clipPath>
<clipPath id="clip1_12_22">
<rect width="151" height="151" fill="white" transform="translate(0 -22)"/>
</clipPath>
</defs>
</svg>
